<svg width="15" height="189" viewBox="0 0 15 189" fill="none" xmlns="http://www.w3.org/2000/svg">
<path d="M4.378 186.074C4.00467 185.822 3.70133 185.477 3.468 185.038C3.23467 184.59 3.118 184.081 3.118 183.512C3.118 182.849 3.28133 182.252 3.608 181.72C3.93467 181.179 4.40133 180.754 5.008 180.446C5.60533 180.129 6.30067 179.97 7.094 179.97C7.88733 179.97 8.592 180.129 9.208 180.446C9.81467 180.754 10.286 181.179 10.622 181.72C10.958 182.252 11.126 182.849 11.126 183.512C11.126 184.091 11.014 184.599 10.79 185.038C10.5567 185.467 10.258 185.813 9.894 186.074H11V188.034H0.64V186.074H4.378ZM7.094 181.972C6.62733 181.972 6.226 182.07 5.89 182.266C5.54467 182.453 5.28333 182.705 5.106 183.022C4.92867 183.33 4.84 183.666 4.84 184.03C4.84 184.385 4.93333 184.721 5.12 185.038C5.29733 185.346 5.55867 185.598 5.904 185.794C6.24933 185.981 6.65533 186.074 7.122 186.074C7.58867 186.074 7.99467 185.981 8.34 185.794C8.68533 185.598 8.95133 185.346 9.138 185.038C9.31533 184.721 9.404 184.385 9.404 184.03C9.404 183.666 9.31067 183.33 9.124 183.022C8.93733 182.705 8.67133 182.453 8.326 182.266C7.98067 182.07 7.57 181.972 7.094 181.972ZM7.094 179.05C6.31 179.05 5.61467 178.896 5.008 178.588C4.40133 178.27 3.93467 177.846 3.608 177.314C3.28133 176.772 3.118 176.17 3.118 175.508C3.118 174.929 3.23467 174.425 3.468 173.996C3.70133 173.557 3.99533 173.207 4.35 172.946H3.244V170.972H11V172.946H9.866C10.23 173.198 10.5333 173.548 10.776 173.996C11.0093 174.434 11.126 174.943 11.126 175.522C11.126 176.175 10.958 176.772 10.622 177.314C10.286 177.846 9.81467 178.27 9.208 178.588C8.592 178.896 7.88733 179.05 7.094 179.05ZM7.122 172.946C6.646 172.946 6.24 173.039 5.904 173.226C5.55867 173.412 5.29733 173.664 5.12 173.982C4.93333 174.299 4.84 174.64 4.84 175.004C4.84 175.368 4.92867 175.704 5.106 176.012C5.28333 176.32 5.54467 176.572 5.89 176.768C6.226 176.954 6.62733 177.048 7.094 177.048C7.56067 177.048 7.97133 176.954 8.326 176.768C8.67133 176.572 8.93733 176.32 9.124 176.012C9.31067 175.694 9.404 175.358 9.404 175.004C9.404 174.64 9.31533 174.299 9.138 173.982C8.95133 173.664 8.69 173.412 8.354 173.226C8.00867 173.039 7.598 172.946 7.122 172.946ZM4.448 167.097C4.03733 166.845 3.71533 166.519 3.482 166.117C3.24867 165.707 3.132 165.24 3.132 164.717H5.19V165.235C5.19 165.851 5.33467 166.318 5.624 166.635C5.91333 166.943 6.41733 167.097 7.136 167.097H11V169.057H3.244L3.244 167.097H4.448ZM11 158.805L7.696 161.437H11V163.397H0.64V161.437H6.534L3.244 158.833V156.285L7.136 159.701L11 156.257V158.805ZM11.126 151.777C11.126 152.524 10.9627 153.196 10.636 153.793C10.3 154.391 9.82867 154.862 9.222 155.207C8.61533 155.543 7.91533 155.711 7.122 155.711C6.32867 155.711 5.62867 155.539 5.022 155.193C4.41533 154.839 3.94867 154.358 3.622 153.751C3.286 153.145 3.118 152.468 3.118 151.721C3.118 150.975 3.286 150.298 3.622 149.691C3.94867 149.085 4.41533 148.609 5.022 148.263C5.62867 147.909 6.32867 147.731 7.122 147.731C7.91533 147.731 8.61533 147.913 9.222 148.278C9.82867 148.632 10.3 149.117 10.636 149.733C10.9627 150.34 11.126 151.021 11.126 151.777ZM9.418 151.777C9.418 151.423 9.334 151.091 9.166 150.783C8.98867 150.466 8.72733 150.214 8.382 150.027C8.03667 149.841 7.61667 149.747 7.122 149.747C6.38467 149.747 5.82 149.943 5.428 150.335C5.02667 150.718 4.826 151.189 4.826 151.749C4.826 152.309 5.02667 152.781 5.428 153.163C5.82 153.537 6.38467 153.723 7.122 153.723C7.85933 153.723 8.42867 153.541 8.83 153.177C9.222 152.804 9.418 152.337 9.418 151.777ZM7.094 146.798C6.31 146.798 5.61467 146.644 5.008 146.336C4.40133 146.018 3.93467 145.594 3.608 145.062C3.28133 144.52 3.118 143.918 3.118 143.256C3.118 142.677 3.23467 142.173 3.468 141.744C3.70133 141.305 3.99533 140.955 4.35 140.694H3.244V138.72H11V140.694H9.866C10.23 140.946 10.5333 141.296 10.776 141.744C11.0093 142.182 11.126 142.691 11.126 143.27C11.126 143.923 10.958 144.52 10.622 145.062C10.286 145.594 9.81467 146.018 9.208 146.336C8.592 146.644 7.88733 146.798 7.094 146.798ZM7.122 140.694C6.646 140.694 6.24 140.787 5.904 140.974C5.55867 141.16 5.29733 141.412 5.12 141.73C4.93333 142.047 4.84 142.388 4.84 142.752C4.84 143.116 4.92867 143.452 5.106 143.76C5.28333 144.068 5.54467 144.32 5.89 144.516C6.226 144.702 6.62733 144.796 7.094 144.796C7.56067 144.796 7.97133 144.702 8.326 144.516C8.67133 144.32 8.93733 144.068 9.124 143.76C9.31067 143.442 9.404 143.106 9.404 142.752C9.404 142.388 9.31533 142.047 9.138 141.73C8.95133 141.412 8.69 141.16 8.354 140.974C8.00867 140.787 7.598 140.694 7.122 140.694ZM4.854 133.249V134.607H11V136.595H4.854V137.477H3.244V136.595H2.852C1.9 136.595 1.2 136.325 0.751999 135.783C0.303999 135.242 0.0939997 134.425 0.122 133.333H1.774C1.76467 133.809 1.844 134.141 2.012 134.327C2.18 134.514 2.48333 134.607 2.922 134.607H3.244V133.249H4.854ZM4.448 130.019C4.03733 129.767 3.71533 129.441 3.482 129.039C3.24867 128.629 3.132 128.162 3.132 127.639H5.19V128.157C5.19 128.773 5.33467 129.24 5.624 129.557C5.91333 129.865 6.41733 130.019 7.136 130.019H11V131.979H3.244V130.019H4.448ZM7.094 126.823C6.31 126.823 5.61467 126.669 5.008 126.361C4.40133 126.044 3.93467 125.619 3.608 125.087C3.28133 124.546 3.118 123.944 3.118 123.281C3.118 122.702 3.23467 122.198 3.468 121.769C3.70133 121.33 3.99533 120.98 4.35 120.719H3.244V118.745H11V120.719H9.866C10.23 120.971 10.5333 121.321 10.776 121.769C11.0093 122.208 11.126 122.716 11.126 123.295C11.126 123.948 10.958 124.546 10.622 125.087C10.286 125.619 9.81467 126.044 9.208 126.361C8.592 126.669 7.88733 126.823 7.094 126.823ZM7.122 120.719C6.646 120.719 6.24 120.812 5.904 120.999C5.55867 121.186 5.29733 121.438 5.12 121.755C4.93333 122.072 4.84 122.413 4.84 122.777C4.84 123.141 4.92867 123.477 5.106 123.785C5.28333 124.093 5.54467 124.345 5.89 124.541C6.226 124.728 6.62733 124.821 7.094 124.821C7.56067 124.821 7.97133 124.728 8.326 124.541C8.67133 124.345 8.93733 124.093 9.124 123.785C9.31067 123.468 9.404 123.132 9.404 122.777C9.404 122.413 9.31533 122.072 9.138 121.755C8.95133 121.438 8.69 121.186 8.354 120.999C8.00867 120.812 7.598 120.719 7.122 120.719ZM11.126 113.863C11.126 114.498 11.014 115.067 10.79 115.571C10.5567 116.075 10.244 116.476 9.852 116.775C9.46 117.064 9.026 117.223 8.55 117.251L8.55 115.277C8.84867 115.24 9.096 115.095 9.292 114.843C9.488 114.582 9.586 114.26 9.586 113.877C9.586 113.504 9.51133 113.214 9.362 113.009C9.21267 112.794 9.02133 112.687 8.788 112.687C8.536 112.687 8.34933 112.818 8.228 113.079C8.09733 113.331 7.95733 113.737 7.808 114.297C7.668 114.876 7.52333 115.352 7.374 115.725C7.22467 116.089 6.996 116.406 6.688 116.677C6.38 116.938 5.96467 117.069 5.442 117.069C5.01267 117.069 4.62067 116.948 4.266 116.705C3.91133 116.453 3.63133 116.098 3.426 115.641C3.22067 115.174 3.118 114.628 3.118 114.003C3.118 113.079 3.35133 112.342 3.818 111.791C4.27533 111.24 4.896 110.937 5.68 110.881V112.757C5.372 112.785 5.12933 112.916 4.952 113.149C4.76533 113.373 4.672 113.676 4.672 114.059C4.672 114.414 4.73733 114.689 4.868 114.885C4.99867 115.072 5.18067 115.165 5.414 115.165C5.67533 115.165 5.876 115.034 6.016 114.773C6.14667 114.512 6.282 114.106 6.422 113.555C6.562 112.995 6.70667 112.533 6.856 112.169C7.00533 111.805 7.23867 111.492 7.556 111.231C7.864 110.96 8.27467 110.82 8.788 110.811C9.236 110.811 9.63733 110.937 9.992 111.189C10.3467 111.432 10.6267 111.786 10.832 112.253C11.028 112.71 11.126 113.247 11.126 113.863ZM7.094 109.706C6.31 109.706 5.61467 109.552 5.008 109.244C4.40133 108.927 3.93467 108.502 3.608 107.97C3.28133 107.429 3.118 106.827 3.118 106.164C3.118 105.585 3.23467 105.081 3.468 104.652C3.70133 104.213 3.99533 103.863 4.35 103.602H3.244V101.628H11V103.602H9.866C10.23 103.854 10.5333 104.204 10.776 104.652C11.0093 105.091 11.126 105.599 11.126 106.178C11.126 106.831 10.958 107.429 10.622 107.97C10.286 108.502 9.81467 108.927 9.208 109.244C8.592 109.552 7.88733 109.706 7.094 109.706ZM7.122 103.602C6.646 103.602 6.24 103.695 5.904 103.882C5.55867 104.069 5.29733 104.321 5.12 104.638C4.93333 104.955 4.84 105.296 4.84 105.66C4.84 106.024 4.92867 106.36 5.106 106.668C5.28333 106.976 5.54467 107.228 5.89 107.424C6.226 107.611 6.62733 107.704 7.094 107.704C7.56067 107.704 7.97133 107.611 8.326 107.424C8.67133 107.228 8.93733 106.976 9.124 106.668C9.31067 106.351 9.404 106.015 9.404 105.66C9.404 105.296 9.31533 104.955 9.138 104.638C8.95133 104.321 8.69 104.069 8.354 103.882C8.00867 103.695 7.598 103.602 7.122 103.602ZM3.132 95.3457C3.132 94.7577 3.26267 94.235 3.524 93.7777C3.776 93.3204 4.154 92.9657 4.658 92.7137C5.15267 92.4524 5.75 92.3217 6.45 92.3217H11V94.2817H6.716C6.1 94.2817 5.62867 94.4357 5.302 94.7437C4.966 95.0517 4.798 95.4717 4.798 96.0037C4.798 96.545 4.966 96.9744 5.302 97.2917C5.62867 97.5997 6.1 97.7537 6.716 97.7537H11V99.7137H0.64V97.7537H4.21C3.874 97.5017 3.61267 97.1657 3.426 96.7457C3.23 96.3257 3.132 95.859 3.132 95.3457ZM1.816 82.9958C1.816 81.9132 2.01667 80.9752 2.418 80.1818C2.81933 79.3885 3.384 78.7818 4.112 78.3618C4.84 77.9325 5.68 77.7178 6.632 77.7178C7.39733 77.7178 8.12067 77.8532 8.802 78.1238C9.48333 78.3852 10.034 78.7678 10.454 79.2718C10.874 79.7758 11.084 80.3732 11.084 81.0638C11.084 81.5492 10.986 81.9412 10.79 82.2398C10.5847 82.5385 10.2953 82.7298 9.922 82.8138C10.286 83.0845 10.5753 83.4345 10.79 83.8638C10.9953 84.2932 11.098 84.7458 11.098 85.2218C11.098 85.9312 10.888 86.4865 10.468 86.8878C10.0387 87.2892 9.45533 87.4898 8.718 87.4898C8.018 87.4898 7.36467 87.3452 6.758 87.0558C6.15133 86.7665 5.666 86.3652 5.302 85.8518C4.92867 85.3385 4.742 84.7598 4.742 84.1158C4.742 83.3132 5.022 82.7625 5.582 82.4638L4.854 82.3378V80.6998L8.634 81.3578C8.81133 81.3858 8.97467 81.3998 9.124 81.3998C9.348 81.3998 9.516 81.3532 9.628 81.2598C9.74 81.1665 9.796 81.0078 9.796 80.7838C9.796 80.4478 9.63733 80.1678 9.32 79.9438C9.00267 79.7105 8.606 79.5378 8.13 79.4258C7.654 79.3045 7.178 79.2438 6.702 79.2438C5.57267 79.2438 4.7 79.5892 4.084 80.2798C3.45867 80.9705 3.146 81.9458 3.146 83.2058C3.146 84.2792 3.40733 85.2498 3.93 86.1178C4.44333 86.9858 5.148 87.6672 6.044 88.1618C6.93067 88.6472 7.92 88.8898 9.012 88.8898C10.1693 88.8898 11.0607 88.5492 11.686 87.8678C12.3113 87.1772 12.624 86.2018 12.624 84.9418C12.624 84.0365 12.4607 83.2385 12.134 82.5478L13.422 82.2678C13.7953 83.1545 13.982 84.1392 13.982 85.2218C13.982 86.2672 13.7813 87.1818 13.38 87.9658C12.988 88.7498 12.428 89.3565 11.7 89.7858C10.972 90.2152 10.1273 90.4298 9.166 90.4298C7.794 90.4298 6.548 90.1125 5.428 89.4778C4.308 88.8338 3.426 87.9472 2.782 86.8178C2.138 85.6792 1.816 84.4052 1.816 82.9958ZM9.642 84.6058C9.642 84.2698 9.544 83.9618 9.348 83.6818C9.152 83.4018 8.89067 83.1825 8.564 83.0238C8.23733 82.8558 7.88733 82.7718 7.514 82.7718C7.122 82.7718 6.80467 82.8792 6.562 83.0938C6.31933 83.3085 6.198 83.6072 6.198 83.9898C6.198 84.3352 6.30533 84.6385 6.52 84.8998C6.72533 85.1612 6.996 85.3665 7.332 85.5158C7.668 85.6558 8.02267 85.7258 8.396 85.7258C8.77867 85.7258 9.082 85.6325 9.306 85.4458C9.53 85.2592 9.642 84.9792 9.642 84.6058ZM3.118 72.7089C3.118 72.1302 3.23467 71.6216 3.468 71.1829C3.692 70.7442 3.986 70.3989 4.35 70.1469H3.244V68.1729H11.056C11.7747 68.1729 12.414 68.3176 12.974 68.6069C13.5433 68.8962 13.9913 69.3302 14.318 69.9089C14.654 70.4876 14.822 71.1876 14.822 72.0089C14.822 73.1102 14.5653 74.0156 14.052 74.7249C13.5387 75.4249 12.8387 75.8216 11.952 75.9149V73.9689C12.3067 73.8662 12.5867 73.6469 12.792 73.3109C13.0067 72.9656 13.114 72.5502 13.114 72.0649C13.114 71.4956 12.9413 71.0336 12.596 70.6789C12.26 70.3242 11.7467 70.1469 11.056 70.1469H9.852C10.216 70.3989 10.5193 70.7489 10.762 71.1969C11.0047 71.6356 11.126 72.1396 11.126 72.7089C11.126 73.3622 10.958 73.9596 10.622 74.5009C10.286 75.0422 9.81467 75.4716 9.208 75.7889C8.592 76.0969 7.88733 76.2509 7.094 76.2509C6.31 76.2509 5.61467 76.0969 5.008 75.7889C4.40133 75.4716 3.93467 75.0469 3.608 74.5149C3.28133 73.9736 3.118 73.3716 3.118 72.7089ZM7.122 70.1469C6.646 70.1469 6.24 70.2402 5.904 70.4269C5.55867 70.6136 5.29733 70.8656 5.12 71.1829C4.93333 71.5002 4.84 71.8409 4.84 72.2049C4.84 72.5689 4.92867 72.9049 5.106 73.2129C5.28333 73.5209 5.54467 73.7729 5.89 73.9689C6.226 74.1556 6.62733 74.2489 7.094 74.2489C7.56067 74.2489 7.97133 74.1556 8.326 73.9689C8.67133 73.7729 8.93733 73.5209 9.124 73.2129C9.31067 72.8956 9.404 72.5596 9.404 72.2049C9.404 71.8409 9.31533 71.5002 9.138 71.1829C8.95133 70.8656 8.69 70.6136 8.354 70.4269C8.00867 70.2402 7.598 70.1469 7.122 70.1469ZM3.132 56.6266C3.132 55.6746 3.426 54.9093 4.014 54.3306C4.59267 53.7426 5.40467 53.4486 6.45 53.4486H11V55.4086H6.716C6.10933 55.4086 5.64733 55.5626 5.33 55.8706C5.00333 56.1786 4.84 56.5986 4.84 57.1306C4.84 57.6626 5.00333 58.0873 5.33 58.4046C5.64733 58.7126 6.10933 58.8666 6.716 58.8666H11V60.8266H6.716C6.10933 60.8266 5.64733 60.9806 5.33 61.2886C5.00333 61.5966 4.84 62.0166 4.84 62.5486C4.84 63.0899 5.00333 63.5193 5.33 63.8366C5.64733 64.1446 6.10933 64.2986 6.716 64.2986H11V66.2586H3.244L3.244 64.2986H4.182C3.85533 64.0466 3.59867 63.7246 3.412 63.3326C3.22533 62.9313 3.132 62.4926 3.132 62.0166C3.132 61.4099 3.26267 60.8686 3.524 60.3926C3.776 59.9166 4.14 59.5479 4.616 59.2866C4.168 59.0346 3.80867 58.6706 3.538 58.1946C3.26733 57.7093 3.132 57.1866 3.132 56.6266ZM7.094 52.0927C6.31 52.0927 5.61467 51.9387 5.008 51.6307C4.40133 51.3134 3.93467 50.8887 3.608 50.3567C3.28133 49.8154 3.118 49.2134 3.118 48.5507C3.118 47.972 3.23467 47.468 3.468 47.0387C3.70133 46.6 3.99533 46.25 4.35 45.9887H3.244V44.0147H11V45.9887H9.866C10.23 46.2407 10.5333 46.5907 10.776 47.0387C11.0093 47.4774 11.126 47.986 11.126 48.5647C11.126 49.218 10.958 49.8154 10.622 50.3567C10.286 50.8887 9.81467 51.3134 9.208 51.6307C8.592 51.9387 7.88733 52.0927 7.094 52.0927ZM7.122 45.9887C6.646 45.9887 6.24 46.082 5.904 46.2687C5.55867 46.4554 5.29733 46.7074 5.12 47.0247C4.93333 47.342 4.84 47.6827 4.84 48.0467C4.84 48.4107 4.92867 48.7467 5.106 49.0547C5.28333 49.3627 5.54467 49.6147 5.89 49.8107C6.226 49.9974 6.62733 50.0907 7.094 50.0907C7.56067 50.0907 7.97133 49.9974 8.326 49.8107C8.67133 49.6147 8.93733 49.3627 9.124 49.0547C9.31067 48.7374 9.404 48.4014 9.404 48.0467C9.404 47.6827 9.31533 47.342 9.138 47.0247C8.95133 46.7074 8.69 46.4554 8.354 46.2687C8.00867 46.082 7.598 45.9887 7.122 45.9887ZM2.32 41.1064C2.32 41.4517 2.21267 41.7411 1.998 41.9744C1.774 42.1984 1.49867 42.3104 1.172 42.3104C0.845333 42.3104 0.574666 42.1984 0.359999 41.9744C0.135999 41.7411 0.0239995 41.4517 0.0239995 41.1064C0.0239995 40.7611 0.135999 40.4764 0.359999 40.2524C0.574666 40.0191 0.845333 39.9024 1.172 39.9024C1.49867 39.9024 1.774 40.0191 1.998 40.2524C2.21267 40.4764 2.32 40.7611 2.32 41.1064ZM3.244 40.1404H11V42.1004H3.244V40.1404ZM0.64 36.2439H11V38.2039H0.64L0.64 36.2439ZM11.098 33.4394C11.098 33.7941 10.9907 34.0881 10.776 34.3214C10.552 34.5454 10.2767 34.6574 9.95 34.6574C9.62333 34.6574 9.35267 34.5454 9.138 34.3214C8.914 34.0881 8.802 33.7941 8.802 33.4394C8.802 33.0941 8.914 32.8094 9.138 32.5854C9.35267 32.3614 9.62333 32.2494 9.95 32.2494C10.2767 32.2494 10.552 32.3614 10.776 32.5854C10.9907 32.8094 11.098 33.0941 11.098 33.4394ZM7.122 31.1747C6.31933 31.1747 5.61933 31.0114 5.022 30.6847C4.41533 30.3581 3.94867 29.9054 3.622 29.3267C3.286 28.7481 3.118 28.0854 3.118 27.3387C3.118 26.3774 3.36067 25.5841 3.846 24.9587C4.322 24.3241 4.994 23.8994 5.862 23.6847V25.7987C5.526 25.9107 5.26467 26.1021 5.078 26.3727C4.882 26.6341 4.784 26.9607 4.784 27.3527C4.784 27.9127 4.98933 28.3561 5.4 28.6827C5.80133 29.0094 6.37533 29.1727 7.122 29.1727C7.85933 29.1727 8.43333 29.0094 8.844 28.6827C9.24533 28.3561 9.446 27.9127 9.446 27.3527C9.446 26.5594 9.09133 26.0414 8.382 25.7987V23.6847C9.222 23.8994 9.88933 24.3241 10.384 24.9587C10.8787 25.5934 11.126 26.3867 11.126 27.3387C11.126 28.0854 10.9627 28.7481 10.636 29.3267C10.3 29.9054 9.83333 30.3581 9.236 30.6847C8.62933 31.0114 7.92467 31.1747 7.122 31.1747ZM11.126 18.8048C11.126 19.5515 10.9627 20.2235 10.636 20.8208C10.3 21.4182 9.82867 21.8895 9.222 22.2348C8.61533 22.5708 7.91533 22.7388 7.122 22.7388C6.32867 22.7388 5.62867 22.5662 5.022 22.2208C4.41533 21.8662 3.94867 21.3855 3.622 20.7788C3.286 20.1722 3.118 19.4955 3.118 18.7488C3.118 18.0022 3.286 17.3255 3.622 16.7188C3.94867 16.1122 4.41533 15.6362 5.022 15.2908C5.62867 14.9362 6.32867 14.7588 7.122 14.7588C7.91533 14.7588 8.61533 14.9408 9.222 15.3048C9.82867 15.6595 10.3 16.1448 10.636 16.7608C10.9627 17.3675 11.126 18.0488 11.126 18.8048ZM9.418 18.8048C9.418 18.4502 9.334 18.1188 9.166 17.8108C8.98867 17.4935 8.72733 17.2415 8.382 17.0548C8.03667 16.8682 7.61667 16.7748 7.122 16.7748C6.38467 16.7748 5.82 16.9708 5.428 17.3628C5.02667 17.7455 4.826 18.2168 4.826 18.7768C4.826 19.3368 5.02667 19.8082 5.428 20.1908C5.82 20.5642 6.38467 20.7508 7.122 20.7508C7.85933 20.7508 8.42867 20.5688 8.83 20.2048C9.222 19.8315 9.418 19.3648 9.418 18.8048ZM3.132 3.68911C3.132 2.73711 3.426 1.97178 4.014 1.39311C4.59267 0.805109 5.40467 0.511109 6.45 0.511109H11V2.47111H6.716C6.10933 2.47111 5.64733 2.62511 5.33 2.93311C5.00333 3.24111 4.84 3.66111 4.84 4.19311C4.84 4.72511 5.00333 5.14978 5.33 5.46711C5.64733 5.77511 6.10933 5.92911 6.716 5.92911H11V7.88911H6.716C6.10933 7.88911 5.64733 8.04311 5.33 8.35111C5.00333 8.65911 4.84 9.07911 4.84 9.61111C4.84 10.1524 5.00333 10.5818 5.33 10.8991C5.64733 11.2071 6.10933 11.3611 6.716 11.3611H11V13.3211H3.244V11.3611H4.182C3.85533 11.1091 3.59867 10.7871 3.412 10.3951C3.22533 9.99378 3.132 9.55511 3.132 9.07911C3.132 8.47244 3.26267 7.93111 3.524 7.45511C3.776 6.97911 4.14 6.61044 4.616 6.34911C4.168 6.09711 3.80867 5.73311 3.538 5.25711C3.26733 4.77178 3.132 4.24911 3.132 3.68911Z" fill="#8892B0"/>
</svg>
