<svg width="56" height="56" viewBox="0 0 56 56" fill="none" xmlns="http://www.w3.org/2000/svg">
<path d="M51.3333 44.3333V21C51.3333 19.7623 50.8416 18.5753 49.9665 17.7002C49.0913 16.825 47.9043 16.3333 46.6666 16.3333H30.884C30.0172 16.3333 29.1675 16.0918 28.4302 15.636C27.6929 15.1802 27.0971 14.5281 26.7096 13.7527L24.6237 9.58067C24.236 8.80491 23.6399 8.15252 22.9021 7.69668C22.1644 7.24085 21.3142 6.9996 20.447 7H9.33332C8.09564 7 6.90866 7.49167 6.03349 8.36684C5.15832 9.24201 4.66666 10.429 4.66666 11.6667V44.3333C4.66666 45.571 5.15832 46.758 6.03349 47.6332C6.90866 48.5083 8.09564 49 9.33332 49H46.6666C47.9043 49 49.0913 48.5083 49.9665 47.6332C50.8416 46.758 51.3333 45.571 51.3333 44.3333Z" stroke="#64D0FF" stroke-width="2" stroke-linecap="round" stroke-linejoin="round"/>
</svg>
