<svg width="20" height="20" viewBox="0 0 20 20" fill="none" xmlns="http://www.w3.org/2000/svg">
<path d="M13.3334 18.3558V15.9642C13.3646 15.5668 13.3109 15.1673 13.1759 14.7923C13.0408 14.4173 12.8275 14.0754 12.55 13.7892C15.1667 13.4975 17.9167 12.5058 17.9167 7.95583C17.9165 6.79236 17.4689 5.6735 16.6667 4.83083C17.0466 3.81292 17.0197 2.68779 16.5917 1.68917C16.5917 1.68917 15.6084 1.3975 13.3334 2.9225C11.4234 2.40485 9.41002 2.40485 7.50002 2.9225C5.22502 1.3975 4.24169 1.68917 4.24169 1.68917C3.81367 2.68779 3.78681 3.81292 4.16669 4.83083C3.35846 5.67975 2.91046 6.80872 2.91669 7.98083C2.91669 12.4975 5.66669 13.4892 8.28336 13.8142C8.00919 14.0975 7.79774 14.4353 7.66278 14.8058C7.52782 15.1762 7.47236 15.5709 7.50002 15.9642V18.3558" stroke="#CCD6F6" stroke-width="1.25" stroke-linecap="round" stroke-linejoin="round"/>
<path d="M7.50002 16.6892C5.00002 17.5 2.91669 16.6892 1.66669 14.1892" stroke="#CCD6F6" stroke-width="1.25" stroke-linecap="round" stroke-linejoin="round"/>
</svg>
